HIERARCHY
ROOT Hips
{
	OFFSET 0.000000 0.000000 0.000000 
	CHANNELS 6 Xposition Yposition Zposition Zrotation Yrotation Xrotation
	JOINT LeftUpLeg
	{
		OFFSET 1.363060 -1.794630 0.839290 
		CHANNELS 3 Zrotation Yrotation Xrotation
		JOINT LeftLeg
		{
			OFFSET 2.448110 -6.726130 0.000000 
			CHANNELS 3 Zrotation Yrotation Xrotation
			JOINT LeftFoot
			{
				OFFSET 2.562200 -7.039590 0.000000 
				CHANNELS 3 Zrotation Yrotation Xrotation
				JOINT LeftToeBase
				{
					OFFSET 0.157640 -0.433110 2.322550 
					CHANNELS 3 Zrotation Yrotation Xrotation
					End Site
					{
						OFFSET 0.000000 0.000000 0.000000 
					}
				}
			}
		}
	}
	JOINT RightUpLeg
	{
		OFFSET -1.305520 -1.794630 0.839290 
		CHANNELS 3 Zrotation Yrotation Xrotation
		JOINT RightLeg
		{
			OFFSET -2.542530 -6.985550 0.000000 
			CHANNELS 3 Zrotation Yrotation Xrotation
			JOINT RightFoot
			{
				OFFSET -2.568260 -7.056230 0.000000 
				CHANNELS 3 Zrotation Yrotation Xrotation
				JOINT RightToeBase
				{
					OFFSET -0.164730 -0.452590 2.363150 
					CHANNELS 3 Zrotation Yrotation Xrotation
					End Site
					{
						OFFSET 0.000000 0.000000 0.000000 
					}
				}
			}
		}
	}
	JOINT Spine
	{
		OFFSET 0.028270 2.035590 -0.193380 
		CHANNELS 3 Zrotation Yrotation Xrotation
		JOINT Spine1
		{
			OFFSET 0.056720 2.048850 -0.042750 
			CHANNELS 3 Zrotation Yrotation Xrotation
			JOINT Neck1
			{
				OFFSET -0.054170 1.746240 0.172020 
				CHANNELS 3 Zrotation Yrotation Xrotation
				JOINT Head
				{
					OFFSET 0.104070 1.761360 -0.123970 
					CHANNELS 3 Zrotation Yrotation Xrotation
					End Site
					{
						OFFSET 0.000000 0.000000 0.000000 
					}
				}
			}
			JOINT LeftArm
			{
				OFFSET 3.362410 1.200890 -0.311210 
				CHANNELS 3 Zrotation Yrotation Xrotation
				JOINT LeftForeArm
				{
					OFFSET 4.983000 -0.000000 -0.000000 
					CHANNELS 3 Zrotation Yrotation Xrotation
					JOINT LeftHand
					{
						OFFSET 3.483560 -0.000000 -0.000000 
						CHANNELS 3 Zrotation Yrotation Xrotation
						JOINT LeftHandIndex1
						{
							OFFSET 0.715260 -0.000000 -0.000000 
							CHANNELS 3 Zrotation Yrotation Xrotation
							End Site
							{
								OFFSET 0.000000 0.000000 0.000000 
							}
						}
					}
				}
			}
			JOINT RightArm
			{
				OFFSET -3.136600 1.374050 -0.404650 
				CHANNELS 3 Zrotation Yrotation Xrotation
				JOINT RightForeArm
				{
					OFFSET -5.241900 -0.000000 -0.000000 
					CHANNELS 3 Zrotation Yrotation Xrotation
					JOINT RightHand
					{
						OFFSET -3.444170 -0.000000 -0.000000 
						CHANNELS 3 Zrotation Yrotation Xrotation
						JOINT RightHandIndex1
						{
							OFFSET -0.622530 -0.000000 -0.000000 
							CHANNELS 3 Zrotation Yrotation Xrotation
							End Site
							{
								OFFSET 0.000000 0.000000 0.000000 
							}
						}
					}
				}
			}
		}
	}
}
MOTION
Frames: 15
Frame Time: 0.041667
-2.165918 17.513063 -11.451298 -11.451759 65.887998 -6.284031 -8.381226 1.775563 -9.592265 1.432362 10.867891 28.995051 1.092827 -2.745998 -13.505676 0.034200 1.193000 3.280100 20.738241 -0.397613 -11.676420 -2.268217 -11.857132 31.854555 -1.981308 7.729949 -11.315478 -0.645100 -5.138300 14.303400 3.168480 -6.155859 -3.956805 8.570731 -2.938048 -1.578630 1.970903 -8.972190 20.252353 2.346300 -5.314700 12.693700 -90.850060 9.823835 20.994145 19.277752 -31.673105 -5.661491 -0.071197 0.396389 -10.723512 -7.125000 0.000000 0.000000 80.040447 -1.852014 12.016894 -11.662873 19.346161 -2.345405 0.481328 -0.196895 -4.562076 7.125000 0.000000 0.000000 
-2.171204 17.504931 -11.449062 -11.579387 66.098319 -6.397575 -8.316523 1.680180 -9.570043 1.422162 10.845670 28.928670 1.096229 -2.838457 -13.371034 0.027300 1.066900 2.932800 20.811962 -0.326738 -11.746253 -2.308719 -11.927151 32.077324 -1.952044 7.343737 -11.694030 -0.549200 -4.747600 13.190100 3.123211 -5.886538 -3.906464 8.282825 -2.826313 -1.362696 2.016742 -7.891398 20.881802 2.325400 -4.763700 13.064900 -90.647960 9.345726 20.481616 18.796170 -31.112955 -5.436996 -0.056288 0.395981 -9.675315 -7.125000 0.000000 0.000000 80.251389 -1.899217 11.845004 -11.789866 19.515645 -2.389842 0.498962 -0.198176 -4.595300 7.125000 0.000000 0.000000 
-2.178929 17.505236 -11.443675 -11.590220 66.375647 -6.431531 -8.295312 1.753913 -9.624248 1.423370 10.830297 28.887842 1.125393 -3.161002 -13.150698 0.017800 0.862300 2.370000 20.873705 -0.652151 -11.939423 -2.344997 -11.992606 32.288980 -1.871951 6.633368 -12.074844 -0.297300 -3.506200 9.691400 3.071037 -5.595177 -3.862593 8.040133 -2.695164 -1.247529 2.167719 -6.850288 21.366663 2.386900 -4.234500 13.289200 -90.404651 8.870064 19.947308 18.258425 -30.473415 -5.183040 -0.054512 0.390211 -8.264961 -7.125000 0.000000 0.000000 80.440752 -1.896989 11.463410 -11.852346 19.594130 -2.411912 0.508486 -0.200403 -4.754563 7.125000 0.000000 0.000000 
-2.188078 17.511132 -11.433611 -11.641996 66.638134 -6.631688 -8.267690 1.825965 -9.564556 1.423801 10.823011 28.863564 1.126007 -3.282770 -12.944183 0.015900 0.814900 2.239800 20.950338 -0.955087 -11.965752 -2.380456 -12.052817 32.473010 -1.846807 6.374599 -12.290360 -0.214000 -2.978000 8.217600 3.056703 -5.347941 -3.803910 7.969945 -2.583131 -1.140455 2.219902 -5.794783 21.794696 2.409400 -3.721500 13.460500 -90.165829 8.646778 19.931906 17.991641 -30.163010 -5.059799 -0.055712 0.386892 -7.771323 -7.125000 0.000000 0.000000 80.422452 -1.905710 11.409355 -11.966785 19.751226 -2.452443 0.504649 -0.190959 -5.353876 7.125000 0.000000 0.000000 
-2.190518 17.508082 -11.422022 -11.584166 66.978534 -6.751369 -8.291588 1.733832 -9.413788 1.430371 10.829899 28.872017 1.151954 -3.615099 -12.703735 0.073600 1.749700 4.814300 20.912649 -1.381544 -11.963962 -2.418205 -12.109570 32.638288 -1.884289 6.509817 -12.490364 -0.197700 -2.863500 7.898900 3.081577 -5.252794 -3.677249 8.056683 -2.560684 -0.692666 2.276550 -4.789227 22.194985 2.446300 -3.250800 13.707700 -90.124513 8.379620 19.665723 17.915549 -30.083614 -5.022281 -0.062198 0.379457 -7.548008 -7.125000 0.000000 0.000000 80.145564 -1.491767 11.842313 -12.024841 19.825540 -2.470456 0.514284 -0.175320 -5.994559 7.125000 0.000000 0.000000 
-2.194584 17.505337 -11.410942 -11.001089 67.365594 -6.360898 -8.510119 1.715530 -9.337426 1.450336 10.858388 28.940867 1.211950 -4.237341 -12.437976 0.177100 2.710600 7.473900 20.652476 -1.660219 -11.925236 -2.437680 -12.144273 32.737630 -1.867768 6.259812 -12.758037 -0.149300 -2.489600 6.860900 3.093812 -5.134506 -3.519545 8.234665 -2.533655 -0.112545 2.170936 -3.915054 22.564149 2.358800 -2.838900 13.982400 -90.219359 7.932544 19.310899 17.809527 -29.988278 -4.984091 -0.056219 0.383383 -7.662727 -7.125000 0.000000 0.000000 79.996090 -0.906119 11.656091 -12.089913 19.895207 -2.490768 0.519707 -0.165670 -6.046647 7.125000 0.000000 0.000000 
-2.209425 17.499340 -11.405250 -10.242881 67.645741 -5.837609 -8.825409 1.484740 -9.226019 1.470370 10.923650 29.116631 1.190927 -4.118643 -12.449438 0.139200 2.404700 6.625400 20.397138 -1.685792 -11.766490 -2.434739 -12.156593 32.765900 -1.779125 5.523962 -13.138623 -0.062800 -1.617200 4.448800 3.041210 -4.815643 -3.416310 8.229877 -2.394560 0.104671 1.984639 -3.174872 22.965741 2.195800 -2.473600 14.276700 -90.058171 7.570853 19.550766 17.672021 -29.847512 -4.936117 -0.041587 0.393982 -8.144957 -7.125000 0.000000 0.000000 80.111849 -0.550663 10.849195 -12.130141 19.921636 -2.503704 0.508794 -0.169541 -5.869290 7.125000 0.000000 0.000000 
-2.222437 17.497510 -11.400879 -10.534665 67.883360 -6.292488 -8.744305 1.196777 -9.115319 1.513335 11.010873 29.385825 1.155381 -3.831154 -12.512534 0.068200 1.684400 4.634200 20.544034 -1.709897 -11.603759 -2.421740 -12.147930 32.720249 -1.747576 5.388417 -13.049093 -0.078800 -1.810700 4.982900 2.988831 -4.517880 -3.331089 7.930155 -2.256328 0.171878 2.026361 -2.476881 23.270884 2.182000 -2.115500 14.483500 -89.618037 7.381175 19.878568 17.602182 -29.753003 -4.903800 -0.038697 0.389680 -8.320032 -7.125000 0.000000 0.000000 80.259303 -0.348161 10.560295 -12.211502 20.018693 -2.532280 0.507646 -0.164865 -6.138456 7.125000 0.000000 0.000000 
-2.230976 17.490191 -11.394271 -11.558408 68.092278 -7.364714 -8.349089 1.245295 -9.218347 1.599303 11.118486 29.754254 1.186616 -4.104472 -12.413599 0.054600 1.508000 4.147800 20.955241 -1.887671 -11.466524 -2.401535 -12.122783 32.614357 -1.771166 5.647934 -12.845648 -0.169300 -2.651000 7.308600 3.014045 -4.348395 -3.232709 7.723059 -2.178878 0.344689 2.224174 -1.627357 23.420377 2.333900 -1.726100 14.532100 -89.454602 7.239174 19.593405 17.563216 -29.688390 -4.877452 -0.044301 0.377983 -7.862877 -7.125000 0.000000 0.000000 80.103728 -0.242598 11.285450 -12.421571 20.320434 -2.610165 0.517672 -0.146634 -7.123705 7.125000 0.000000 0.000000 
-2.239006 17.477688 -11.387562 -12.416001 68.286705 -8.313469 -8.036140 1.156396 -9.256838 1.682419 11.237755 30.149887 1.188013 -4.119599 -12.397773 0.045700 1.379500 3.793600 21.251691 -1.773542 -11.137314 -2.383713 -12.100153 32.511404 -1.834381 6.098502 -12.754096 -0.386600 -3.992600 11.055900 3.078337 -4.261185 -3.124556 7.715950 -2.145624 0.569288 2.352585 -0.726500 23.631024 2.461000 -1.336200 14.638300 -89.578140 7.058601 19.087670 17.593522 -29.727713 -4.895046 -0.046557 0.378909 -7.845776 -7.125000 0.000000 0.000000 79.721439 -0.192057 12.727702 -12.665066 20.674148 -2.701369 0.531525 -0.134190 -8.520286 7.125000 0.000000 0.000000 
-2.246325 17.467522 -11.382683 -12.646219 68.549902 -8.780591 -8.018308 0.913466 -9.159216 1.753997 11.374225 30.571032 1.147816 -3.740804 -12.584260 0.011600 0.695100 1.910200 21.264502 -1.794089 -10.799793 -2.370963 -12.083419 32.430926 -1.880832 6.474045 -12.598155 -0.640800 -5.121200 14.254600 3.071609 -4.217581 -3.004503 7.591768 -2.137233 0.770661 2.377154 0.018782 23.849380 2.444300 -0.969600 14.761200 -89.571611 6.873055 18.655991 17.667930 -29.831102 -4.945058 -0.041676 0.388278 -8.531195 -7.125000 0.000000 0.000000 79.653024 0.005095 13.643786 -12.795917 20.851034 -2.748342 0.541067 -0.131238 -9.019255 7.125000 0.000000 0.000000 
-2.253949 17.463863 -11.378108 -12.347961 68.928879 -8.660294 -8.217953 0.896762 -9.277895 1.830517 11.510834 30.997382 1.128636 -3.567147 -12.700330 0.001500 -0.250800 -0.689000 21.122510 -2.371641 -10.839993 -2.355308 -12.065243 32.365097 -1.817425 6.004430 -12.726498 -0.470100 -4.397500 12.197800 2.992803 -4.099331 -2.897979 7.328804 -2.086268 0.942857 2.459272 0.524553 23.927781 2.429000 -0.678400 14.751100 -89.450744 6.755527 18.585161 17.810786 -30.017994 -5.027514 -0.032459 0.397220 -9.541053 -7.125000 0.000000 0.000000 79.882717 0.325443 13.536190 -12.842616 20.902571 -2.764756 0.546034 -0.134284 -8.661072 7.125000 0.000000 0.000000 
-2.262183 17.462135 -11.375160 -12.670414 69.304874 -9.077110 -8.175919 0.842106 -9.415997 1.912750 11.632354 31.400629 1.123589 -3.567497 -12.658856 0.015400 -0.800000 -2.198800 21.297508 -3.097728 -11.123371 -2.340348 -12.054735 32.328392 -1.692376 5.104781 -13.027134 -0.142300 -2.431500 6.699800 2.910553 -3.802949 -2.797987 6.905046 -1.936046 1.047450 2.491833 0.747476 23.900139 2.381200 -0.511000 14.657600 -89.191147 6.739323 18.759504 18.026672 -30.265518 -5.127531 -0.033234 0.393093 -9.561760 -7.125000 0.000000 0.000000 80.172858 0.299179 13.290269 -13.049946 21.196229 -2.847411 0.540950 -0.126009 -8.758808 7.125000 0.000000 0.000000 
-2.273162 17.459390 -11.372721 -13.385749 69.547170 -9.925829 -7.965932 0.471565 -9.325550 1.988067 11.740905 31.758326 1.124335 -3.687979 -12.478100 0.000500 -0.141300 -0.388300 21.470903 -2.770661 -10.687267 -2.356911 -12.075739 32.365920 -1.835508 6.042961 -12.914012 -0.500900 -4.537000 12.592600 2.838408 -3.406329 -2.696717 6.448696 -1.730838 1.093530 2.524328 0.871809 23.900279 2.358000 -0.405800 14.618100 -88.799071 6.663437 18.191893 18.008585 -30.191191 -5.096104 -0.050376 0.366567 -7.010617 -7.125000 0.000000 0.000000 80.483156 0.002350 13.101545 -13.378818 21.670661 -2.982621 0.514513 -0.113351 -9.064301 7.125000 0.000000 0.000000 
-2.283734 17.458170 -11.373026 -12.601993 69.879198 -9.269180 -8.305919 0.038549 -9.376898 2.068365 11.879647 32.197006 1.117358 -3.806014 -12.276583 0.009600 0.632300 1.737600 21.067357 -3.024561 -10.725261 -2.362511 -12.066622 32.347563 -1.896191 6.497408 -12.718848 -0.675600 -5.255900 14.639800 2.784340 -3.217266 -2.622269 6.411155 -1.643619 1.198785 2.624243 1.190204 24.022807 2.451300 -0.272600 14.724600 -88.777341 6.756431 19.718139 18.516772 -30.835302 -5.360845 -0.032254 0.394170 -11.855461 -7.125000 0.000000 0.000000 80.493056 -0.023146 13.295957 -13.573028 21.943043 -3.062825 0.507959 -0.117724 -9.237814 7.125000 0.000000 0.000000 
